#N canvas 683 187 664 236 10;
#X obj 373 77 v v1;
#X obj 405 98 change;
#X obj 405 119 outlet;
#X obj 25 86 expr if($i1 <=0 \, 0 \, if($i1 >= 127 \, 127 \, $i1))
;
#X obj 25 107 change;
#X obj 25 129 outlet;
#X obj 124 43 f;
#X obj 25 64 expr ($i1-16)+$i2;
#X obj 405 55 expr if(v1 <=0 \, v1=0 \, v1) \; if(v1>=127 \, v1=127
\, v1) \; v1=($i1-16)+v1;
#X obj 124 20 inlet initial_value;
#X obj 25 20 inlet ctlin;
#X obj 405 26 inlet ctlin;
#X connect 1 0 2 0;
#X connect 3 0 4 0;
#X connect 3 0 6 0;
#X connect 4 0 5 0;
#X connect 6 0 7 1;
#X connect 7 0 3 0;
#X connect 8 0 1 0;
#X connect 9 0 6 0;
#X connect 9 0 0 0;
#X connect 10 0 7 0;
#X connect 11 0 8 0;
