#N canvas 724 299 664 176 10;
#X obj 580 74 v v1;
#X obj 405 55 expr if(v1 <=0 \, v1=0 \, v1) \; if(v1>=127 \, v1=127
\, v1) \; v1=($i1-64)+v1;
#X obj 405 98 change;
#X obj 405 26 ctlin 16 1;
#X obj 405 119 outlet;
#X obj 25 86 expr if($i1 <=0 \, 0 \, if($i1 >= 127 \, 127 \, $i1))
;
#X obj 25 107 change;
#X obj 25 22 ctlin 16 1;
#X obj 25 128 outlet;
#X obj 124 43 f;
#X obj 25 64 expr ($i1-64)+$i2;
#X connect 1 0 2 0;
#X connect 2 0 4 0;
#X connect 3 0 1 0;
#X connect 5 0 6 0;
#X connect 5 0 9 0;
#X connect 6 0 8 0;
#X connect 7 0 10 0;
#X connect 9 0 10 1;
#X connect 10 0 5 0;
