#N canvas 794 105 535 269 10;
#X obj 240 145 v v1;
#X floatatom 65 190 5 0 0 0 - - -;
#X obj 65 126 expr if(v1 <=0 \, v1=0 \, v1) \; if(v1>=127 \, v1=127
\, v1) \; v1=($i1-64)+v1;
#X text 240 196 Get 0 to 127 Output.;
#X obj 65 97 ctlin 16 1;
#X obj 65 169 change;
#X text 238 176 Avoid multiple 0 or 127 values;
#X text 239 125 Define a unique (!!!) variable here.;
#X text 139 95 Define Input Controller here. [ctlin CC-Number MIDI-Channel]
;
#X text 62 13 Read out relative CC encoder values.;
#X text 59 27 (This patch works with Aruturia Beat-Step Relative Mode
#1 and every other relative controller \, that is centered around value
64.);
#X connect 2 0 5 0;
#X connect 4 0 2 0;
#X connect 5 0 1 0;
