#N canvas 422 409 440 360 12;
#X obj 67 138 << 7;
#X obj 135 203 +;
#X obj 88 177 f;
#X obj 135 138 t b f;
#X obj 67 113 ctlin 0;
#X obj 135 113 ctlin 32;
#X text 37 40 Read out High Definition MIDI Controllers:;
#X text 36 76 Set MSB cc;
#X text 143 76 Set LSB cc;
#X floatatom 135 227 5 0 0 0 - - -;
#X text 190 227 get value from 0 to 16383;
#X connect 0 0 2 1;
#X connect 1 0 9 0;
#X connect 2 0 1 0;
#X connect 3 0 2 0;
#X connect 3 1 1 1;
#X connect 4 0 0 0;
#X connect 5 0 3 0;
