#N canvas 579 28 547 232 10;
#X obj 20 17 notein;
#X obj 20 45 pack f f;
#X obj 20 70 poly 4;
#X obj 20 102 pack f f f;
#X obj 20 127 route 1 2 3 4;
#X obj 20 181 noteout 1;
#X obj 20 154 unpack f f;
#X obj 90 154 unpack f f;
#X obj 90 181 noteout 2;
#X obj 162 153 unpack f f;
#X obj 232 153 unpack f f;
#X obj 162 180 noteout 3;
#X obj 232 180 noteout 4;
#X connect 0 0 1 0;
#X connect 0 1 1 1;
#X connect 1 0 2 0;
#X connect 2 0 3 0;
#X connect 2 1 3 1;
#X connect 2 2 3 2;
#X connect 3 0 4 0;
#X connect 4 0 6 0;
#X connect 4 1 7 0;
#X connect 4 2 9 0;
#X connect 4 3 10 0;
#X connect 6 0 5 0;
#X connect 6 1 5 1;
#X connect 7 0 8 0;
#X connect 7 1 8 1;
#X connect 9 0 11 0;
#X connect 9 1 11 1;
#X connect 10 0 12 0;
#X connect 10 1 12 1;
