#N canvas 646 191 487 239 10;
#X obj 65 87 ctlin 67 1;
#X obj 240 135 v v1;
#X floatatom 65 170 5 0 0 0 - - -;
#X obj 65 116 expr if(v1 <=0 \, v1=0 \, v1) \; if(v1>=127 \, v1=127
\, v1) \; v1=($i1-64)+v1;
#X text 62 13 Read out relative CC encoder values from Arturia Beatstep
(or other controllers).;
#X text 239 86 Define CC here.;
#X text 239 115 Define a variable here.;
#X text 240 171 Get 0 to 127 Output.;
#X text 64 43 This works with Relative Mode #1.;
#X connect 0 0 3 0;
#X connect 3 0 2 0;
