#N canvas 826 24 547 300 10;
#X obj 20 87 notein;
#X obj 20 115 pack f f;
#X obj 20 140 poly 4;
#X obj 20 172 pack f f f;
#X obj 20 197 route 1 2 3 4;
#X obj 20 251 noteout 1;
#X obj 20 224 unpack f f;
#X obj 90 224 unpack f f;
#X obj 90 251 noteout 2;
#X obj 162 223 unpack f f;
#X obj 232 223 unpack f f;
#X obj 162 250 noteout 3;
#X obj 232 250 noteout 4;
#X text 87 88 Set MIDI Input here;
#X text 92 141 Set Number of voices with 1st argument;
#X text 137 194 Split out to several MIDI Channels;
#X text 301 252 Define MIDI Outputs here.;
#X text 16 28 MIDI Note Dispatcher: Distribute Notes from one Input
source to multiple outputs with different MIDI Channels;
#X connect 0 0 1 0;
#X connect 0 1 1 1;
#X connect 1 0 2 0;
#X connect 2 0 3 0;
#X connect 2 1 3 1;
#X connect 2 2 3 2;
#X connect 3 0 4 0;
#X connect 4 0 6 0;
#X connect 4 1 7 0;
#X connect 4 2 9 0;
#X connect 4 3 10 0;
#X connect 6 0 5 0;
#X connect 6 1 5 1;
#X connect 7 0 8 0;
#X connect 7 1 8 1;
#X connect 9 0 11 0;
#X connect 9 1 11 1;
#X connect 10 0 12 0;
#X connect 10 1 12 1;
