#N canvas 755 455 526 416 10;
#X obj 40 105 polytouchin 1;
#X obj 40 149 pack 0 0;
#X obj 40 127 t b f;
#X obj 40 170 route 49 50 51;
#X floatatom 40 293 5 0 0 0 - - -;
#X text 234 293 Poly Aftertouch Values per MIDI Note;
#X text 134 97 Arg.: MIDI Channel. Outlets: AT value \, MIDI Note Nr]
;
#X text 148 169 Set MIDI Notes (corresponding to Pad controller)to
read out.;
#X text 41 20 This is a simple method to read out polyphonic aftertouch
values as 0 to 127 MIDI values(for example send by Arturia Beatstep
pads).;
#X obj 40 225 expr if($i1==1 \, 0 \, $i1) \; if($i2==1 \, 0 \, $i2)
\; if($i3==1 \, 0 \, $i3);
#X floatatom 110 293 5 0 0 0 - - -;
#X floatatom 181 292 5 0 0 0 - - -;
#X obj 67 197 t b f;
#X obj 106 197 t b f;
#X obj 40 271 change;
#X obj 110 271 change;
#X obj 181 271 change;
#X text 236 270 Avoid spam;
#X text 212 227 Outputs 0 to 127 instead of 1 to 127;
#X connect 0 0 2 0;
#X connect 0 1 1 0;
#X connect 1 0 3 0;
#X connect 2 0 1 0;
#X connect 2 1 1 1;
#X connect 3 0 9 0;
#X connect 3 1 12 0;
#X connect 3 2 13 0;
#X connect 9 0 14 0;
#X connect 9 1 15 0;
#X connect 9 2 16 0;
#X connect 12 0 9 0;
#X connect 12 1 9 1;
#X connect 13 0 9 0;
#X connect 13 1 9 2;
#X connect 14 0 4 0;
#X connect 15 0 10 0;
#X connect 16 0 11 0;
