#N canvas 185 476 656 292 10;
#X obj 263 234 volume;
#X obj 257 44 bng 15 250 50 0 empty empty empty 17 7 0 10 -262144 -1
-1;
#X obj 257 65 openpanel;
#X msg 257 86 open \$1;
#X msg 337 87 1;
#X obj 257 117 readsf~ 2;
#X obj 355 154 hsl 128 15 0 1 0 0 empty empty 0-1 -2 -8 0 10 -4034
-1 -1 12700 1;
#X obj 355 184 hsl 128 15 0 127 0 0 empty empty 0-127 -2 -8 0 10 -258113
-1 -1 4800 1;
#X obj 263 255 dac~ 1 2;
#X msg 374 220 range 1;
#X msg 434 220 range 127;
#X msg 507 237 set \$1;
#X floatatom 507 214 5 0 0 0 - - -;
#X obj 462 91 tgl 15 0 empty empty empty 17 7 0 10 -262144 -1 -1 1
1;
#X connect 0 0 8 0;
#X connect 0 1 8 1;
#X connect 1 0 2 0;
#X connect 2 0 3 0;
#X connect 3 0 5 0;
#X connect 4 0 5 0;
#X connect 5 0 0 0;
#X connect 5 1 0 1;
#X connect 6 0 0 2;
#X connect 7 0 0 2;
#X connect 9 0 0 2;
#X connect 10 0 0 2;
#X connect 11 0 0 2;
#X connect 12 0 11 0;
#X connect 13 0 0 2;
