#N canvas 615 415 527 292 10;
#X obj 228 40 polytouchin 1;
#X obj 228 84 pack 0 0;
#X obj 247 65 t b f;
#X obj 228 176 expr if($i1==1 \, 0 \, $i1) \; if($i2==1 \, 0 \, $i2)
\; if($i3==1 \, 0 \, $i3);
#X obj 278 147 t b f;
#X obj 328 147 t b f;
#X obj 228 222 ctlout;
#X obj 298 222 ctlout;
#X obj 369 222 ctlout;
#X obj 228 105 route 44 45 46;
#X obj 18 105 route 47;
#X obj 18 147 expr if($i1==1 \, 0 \, $i1);
#X obj 18 126 change;
#X obj 228 126 change;
#X obj 278 126 change;
#X obj 328 126 change;
#X obj 18 168 ctlout;
#X obj 18 40 polytouchin 1;
#X obj 18 84 pack 0 0;
#X obj 18 62 t b f;
#X text 19 21 ONE PARAMETER;
#X text 226 18 MULTIPLE PARAMETERS;
#X text 77 106 set MIDI Note Nr;
#X text 327 104 set MIDI Note Nr;
#X connect 0 0 2 0;
#X connect 0 1 1 0;
#X connect 1 0 9 0;
#X connect 2 0 1 0;
#X connect 2 1 1 1;
#X connect 3 0 6 0;
#X connect 3 1 7 0;
#X connect 3 2 8 0;
#X connect 4 0 3 0;
#X connect 4 1 3 1;
#X connect 5 0 3 0;
#X connect 5 1 3 2;
#X connect 9 0 13 0;
#X connect 9 1 14 0;
#X connect 9 2 15 0;
#X connect 10 0 12 0;
#X connect 11 0 16 0;
#X connect 12 0 11 0;
#X connect 13 0 3 0;
#X connect 14 0 4 0;
#X connect 15 0 5 0;
#X connect 17 0 19 0;
#X connect 17 1 18 0;
#X connect 18 0 10 0;
#X connect 19 0 18 0;
#X connect 19 1 18 1;
