#N canvas 76 108 675 492 10;
#X obj 106 396 line~;
#X obj 25 31 inlet~;
#X obj 67 31 inlet~;
#X obj 25 420 expr~ $v1*$v3 \; $v2*$v3;
#X obj 25 452 outlet~;
#X obj 106 452 outlet~;
#X obj 137 30 inlet;
#X msg 420 223 0 40;
#X msg 517 245 1 40;
#X msg 420 189 set 0 \$1;
#X msg 517 189 set 1 \$1;
#X obj 106 280 expr $f1 * $f2;
#X obj 315 163 sel 1 127;
#X msg 187 257 0.00787402;
#X msg 162 257 1, f 2;
#X obj 106 307 pack f 20;
#X obj 315 100 loadbang;
#X msg 349 123 40;
#X msg 315 123 1;
#X obj 106 251 change;
#X obj 106 230 expr if($f1<0 \, 0 \, if($f1 > $f2 \, $f2 \, $f1));
#X msg 315 198 1;
#X msg 355 198 127;
#X obj 420 30 inlet;
#X obj 471 134 sel 0 1;
#X obj 420 61 route set;
#X obj 137 61 route range;
#X obj 420 83 expr if($f1<0 \, 0 \, $f1);
#X obj 420 104 change;
#X connect 0 0 3 2;
#X connect 1 0 3 0;
#X connect 2 0 3 1;
#X connect 3 0 4 0;
#X connect 3 1 5 0;
#X connect 6 0 26 0;
#X connect 7 0 0 0;
#X connect 8 0 0 0;
#X connect 9 0 7 0;
#X connect 10 0 8 0;
#X connect 11 0 15 0;
#X connect 12 0 14 0;
#X connect 12 0 21 0;
#X connect 12 1 13 0;
#X connect 12 1 22 0;
#X connect 13 0 11 1;
#X connect 14 0 11 1;
#X connect 15 0 0 0;
#X connect 16 0 17 0;
#X connect 16 0 18 0;
#X connect 17 0 9 0;
#X connect 17 0 10 0;
#X connect 18 0 12 0;
#X connect 19 0 11 0;
#X connect 20 0 19 0;
#X connect 21 0 20 1;
#X connect 22 0 20 1;
#X connect 23 0 25 0;
#X connect 24 0 7 0;
#X connect 24 1 8 0;
#X connect 25 0 27 0;
#X connect 25 1 24 0;
#X connect 26 0 12 0;
#X connect 26 1 20 0;
#X connect 27 0 28 0;
#X connect 28 0 9 0;
#X connect 28 0 10 0;
