#N canvas 528 50 590 444 10;
#X obj 121 346 line~;
#X obj 40 21 inlet~;
#X obj 82 21 inlet~;
#X obj 40 370 expr~ $v1*$v3 \; $v2*$v3;
#X obj 40 402 outlet~;
#X obj 121 402 outlet~;
#X msg 121 273 set 0 \$1;
#X msg 231 273 set 1 \$1;
#X obj 132 21 inlet;
#X obj 222 163 sel 0 1;
#X obj 475 157 loadbang;
#X msg 121 314 0 40;
#X msg 231 314 1 40;
#X obj 348 315 pack f f;
#X msg 505 179 20;
#X msg 475 179 40;
#X msg 429 69 0.00787402;
#X msg 404 69 1, f 2;
#X obj 348 273 expr $f1 * $f2;
#X obj 132 44 route set range;
#X obj 404 44 sel 1 127;
#X obj 272 163 sel 0 127;
#X obj 222 138 spigot;
#X obj 272 138 spigot;
#X msg 258 89 1, f 1;
#X msg 278 89 0, f 1;
#X msg 298 89 0, f 1;
#X msg 318 89 1, f 1;
#X msg 404 17 1;
#X connect 0 0 3 2;
#X connect 1 0 3 0;
#X connect 2 0 3 1;
#X connect 3 0 4 0;
#X connect 3 1 5 0;
#X connect 6 0 11 0;
#X connect 7 0 12 0;
#X connect 8 0 19 0;
#X connect 9 0 11 0;
#X connect 9 1 12 0;
#X connect 9 2 18 0;
#X connect 10 0 15 0;
#X connect 10 0 14 0;
#X connect 10 0 28 0;
#X connect 11 0 0 0;
#X connect 12 0 0 0;
#X connect 13 0 0 0;
#X connect 14 0 13 1;
#X connect 15 0 7 0;
#X connect 15 0 6 0;
#X connect 16 0 18 1;
#X connect 17 0 18 1;
#X connect 18 0 13 0;
#X connect 19 0 6 0;
#X connect 19 0 7 0;
#X connect 19 1 20 0;
#X connect 19 2 22 0;
#X connect 19 2 23 0;
#X connect 20 0 17 0;
#X connect 20 0 24 0;
#X connect 20 0 25 0;
#X connect 20 1 16 0;
#X connect 20 1 26 0;
#X connect 20 1 27 0;
#X connect 21 0 11 0;
#X connect 21 1 12 0;
#X connect 21 2 18 0;
#X connect 22 0 9 0;
#X connect 23 0 21 0;
#X connect 24 0 22 1;
#X connect 25 0 23 1;
#X connect 26 0 22 1;
#X connect 27 0 23 1;
#X connect 28 0 20 0;
